<svg xmlns="http://www.w3.org/2000/svg" xmlns:xlink="http://www.w3.org/1999/xlink" contentStyleType="text/css" data-diagram-type="CLASS" height="1052px" preserveAspectRatio="none" style="width:689px;height:1052px;background:#FFFFFF;" version="1.1" viewBox="0 0 689 1052" width="689px" zoomAndPan="magnify"><title>Pap&#233;is e a&#231;&#245;es (RBAC)</title><defs/><g><g class="title" data-source-line="1"><text fill="#000000" font-family="sans-serif" font-size="14" font-weight="bold" lengthAdjust="spacing" textLength="154.0547" x="260.5952" y="24.5332">Pap&#233;is e a&#231;&#245;es (RBAC)</text></g><!--cluster Cat?logo (sem clinica_id ? global)--><g class="cluster" data-entity="Cat.logo .sem clinica_id . global." data-source-line="8" data-uid="ent0002" id="cluster_Cat.logo .sem clinica_id . global."><path d="M87,716.1094 L320.2578,716.1094 A3.75,3.75 0 0 1 322.7578,718.6094 L329.7578,739.7188 L621,739.7188 A2.5,2.5 0 0 1 623.5,742.2188 L623.5,1042.6094 A2.5,2.5 0 0 1 621,1045.1094 L87,1045.1094 A2.5,2.5 0 0 1 84.5,1042.6094 L84.5,718.6094 A2.5,2.5 0 0 1 87,716.1094" fill="none" style="stroke:#000000;stroke-width:1.5;"/><line style="stroke:#000000;stroke-width:1.5;" x1="84.5" x2="329.7578" y1="739.7188" y2="739.7188"/><text fill="#000000" font-family="sans-serif" font-size="14" font-weight="bold" lengthAdjust="spacing" textLength="232.2578" x="88.5" y="732.6426">Cat&#225;logo (sem clinica_id &#8212; global)</text></g><!--class papel--><g class="entity" data-entity="papel" data-source-line="9" data-uid="ent0003" id="entity_papel"><rect fill="#F1F1F1" height="93.9219" rx="2.5" ry="2.5" style="stroke:#181818;stroke-width:0.5;" width="134.9443" x="104" y="935.1094"/><ellipse cx="146.4056" cy="956.4609" fill="#ADD1B2" rx="11" ry="11" style="stroke:#181818;stroke-width:1;"/><path d="M149.1712,952.3359 Q149.3275,952.1172 149.515,952.0078 Q149.7025,951.8984 149.9212,951.8984 Q150.2962,951.8984 150.5306,952.1641 Q150.765,952.4141 150.765,953.0234 L150.765,954.4766 Q150.765,955.0859 150.5306,955.3516 Q150.2962,955.6172 149.9212,955.6172 Q149.5775,955.6172 149.3744,955.4141 Q149.1712,955.2266 149.0619,954.7109 Q149.015,954.3516 148.8275,954.1641 Q148.4994,953.7891 147.89,953.5703 Q147.2806,953.3516 146.6556,953.3516 Q145.89,953.3516 145.2494,953.6797 Q144.6244,954.0078 144.1244,954.7578 Q143.64,955.5078 143.64,956.5391 L143.64,957.6328 Q143.64,958.8672 144.5306,959.6953 Q145.4212,960.5078 147.015,960.5078 Q147.9525,960.5078 148.6087,960.2578 Q148.9994,960.1016 149.4212,959.6641 Q149.6869,959.3984 149.8275,959.3203 Q149.9837,959.2422 150.1869,959.2422 Q150.515,959.2422 150.765,959.5078 Q151.0306,959.7578 151.0306,960.1016 Q151.0306,960.4453 150.6869,960.8516 Q150.1869,961.4297 149.39,961.7578 Q148.3119,962.2109 147.015,962.2109 Q145.4994,962.2109 144.2962,961.5859 Q143.3119,961.0859 142.6244,960.0234 Q141.9369,958.9453 141.9369,957.6641 L141.9369,956.5078 Q141.9369,955.1797 142.5462,954.0391 Q143.1712,952.8828 144.265,952.2734 Q145.3587,951.6484 146.5931,951.6484 Q147.3275,951.6484 147.9681,951.8203 Q148.6244,951.9766 149.1712,952.3359 Z " fill="#000000"/><text fill="#000000" font-family="sans-serif" font-size="12" font-style="italic" lengthAdjust="spacing" textLength="46.043" x="164.4958" y="952.5664">&#171;tabela&#187;</text><text fill="#000000" font-family="sans-serif" font-size="14" lengthAdjust="spacing" textLength="34.2549" x="170.3898" y="969.7363">papel</text><line style="stroke:#181818;stroke-width:0.5;" x1="105" x2="237.9443" y1="977.8125" y2="977.8125"/><text fill="#000000" font-family="sans-serif" font-size="14" lengthAdjust="spacing" textLength="122.9443" x="110" y="996.3457">chave : TEXT &#171;PK&#187;</text><text fill="#000000" font-family="sans-serif" font-size="14" lengthAdjust="spacing" textLength="82.4824" x="110" y="1013.9551">rotulo, ordem</text><line style="stroke:#181818;stroke-width:0.5;" x1="105" x2="237.9443" y1="1021.0313" y2="1021.0313"/></g><!--class acao--><g class="entity" data-entity="acao" data-source-line="14" data-uid="ent0004" id="entity_acao"><rect fill="#F1F1F1" height="146.75" rx="2.5" ry="2.5" style="stroke:#181818;stroke-width:0.5;" width="141.9375" x="100.5" y="752.6094"/><ellipse cx="146.1973" cy="773.9609" fill="#ADD1B2" rx="11" ry="11" style="stroke:#181818;stroke-width:1;"/><path d="M148.9629,769.8359 Q149.1191,769.6172 149.3066,769.5078 Q149.4941,769.3984 149.7129,769.3984 Q150.0879,769.3984 150.3223,769.6641 Q150.5566,769.9141 150.5566,770.5234 L150.5566,771.9766 Q150.5566,772.5859 150.3223,772.8516 Q150.0879,773.1172 149.7129,773.1172 Q149.3691,773.1172 149.166,772.9141 Q148.9629,772.7266 148.8535,772.2109 Q148.8066,771.8516 148.6191,771.6641 Q148.291,771.2891 147.6816,771.0703 Q147.0723,770.8516 146.4473,770.8516 Q145.6816,770.8516 145.041,771.1797 Q144.416,771.5078 143.916,772.2578 Q143.4316,773.0078 143.4316,774.0391 L143.4316,775.1328 Q143.4316,776.3672 144.3223,777.1953 Q145.2129,778.0078 146.8066,778.0078 Q147.7441,778.0078 148.4004,777.7578 Q148.791,777.6016 149.2129,777.1641 Q149.4785,776.8984 149.6191,776.8203 Q149.7754,776.7422 149.9785,776.7422 Q150.3066,776.7422 150.5566,777.0078 Q150.8223,777.2578 150.8223,777.6016 Q150.8223,777.9453 150.4785,778.3516 Q149.9785,778.9297 149.1816,779.2578 Q148.1035,779.7109 146.8066,779.7109 Q145.291,779.7109 144.0879,779.0859 Q143.1035,778.5859 142.416,777.5234 Q141.7285,776.4453 141.7285,775.1641 L141.7285,774.0078 Q141.7285,772.6797 142.3379,771.5391 Q142.9629,770.3828 144.0566,769.7734 Q145.1504,769.1484 146.3848,769.1484 Q147.1191,769.1484 147.7598,769.3203 Q148.416,769.4766 148.9629,769.8359 Z " fill="#000000"/><text fill="#000000" font-family="sans-serif" font-size="12" font-style="italic" lengthAdjust="spacing" textLength="46.043" x="164.6973" y="770.0664">&#171;tabela&#187;</text><text fill="#000000" font-family="sans-serif" font-size="14" lengthAdjust="spacing" textLength="30.3584" x="172.5396" y="787.2363">acao</text><line style="stroke:#181818;stroke-width:0.5;" x1="101.5" x2="241.4375" y1="795.3125" y2="795.3125"/><text fill="#000000" font-family="sans-serif" font-size="14" lengthAdjust="spacing" textLength="122.9443" x="106.5" y="813.8457">chave : TEXT &#171;PK&#187;</text><text fill="#000000" font-family="sans-serif" font-size="14" lengthAdjust="spacing" textLength="45.917" x="106.5" y="831.4551">modulo</text><text fill="#000000" font-family="sans-serif" font-size="14" lengthAdjust="spacing" textLength="120.5928" x="106.5" y="849.0645">escrita : BOOLEAN</text><text fill="#000000" font-family="sans-serif" font-size="14" lengthAdjust="spacing" textLength="129.9375" x="106.5" y="866.6738">sensivel : BOOLEAN</text><text fill="#000000" font-family="sans-serif" font-size="14" lengthAdjust="spacing" textLength="59.917" x="106.5" y="884.2832">descricao</text><line style="stroke:#181818;stroke-width:0.5;" x1="101.5" x2="241.4375" y1="891.3594" y2="891.3594"/></g><!--class papel_acao--><g class="entity" data-entity="papel_acao" data-source-line="22" data-uid="ent0005" id="entity_papel_acao"><rect fill="#F1F1F1" height="93.9219" rx="2.5" ry="2.5" style="stroke:#181818;stroke-width:0.5;" width="128.751" x="478.5" y="857.1094"/><ellipse cx="504.4582" cy="878.4609" fill="#ADD1B2" rx="11" ry="11" style="stroke:#181818;stroke-width:1;"/><path d="M507.2238,874.3359 Q507.3801,874.1172 507.5676,874.0078 Q507.7551,873.8984 507.9738,873.8984 Q508.3488,873.8984 508.5832,874.1641 Q508.8176,874.4141 508.8176,875.0234 L508.8176,876.4766 Q508.8176,877.0859 508.5832,877.3516 Q508.3488,877.6172 507.9738,877.6172 Q507.6301,877.6172 507.427,877.4141 Q507.2238,877.2266 507.1145,876.7109 Q507.0676,876.3516 506.8801,876.1641 Q506.552,875.7891 505.9426,875.5703 Q505.3332,875.3516 504.7082,875.3516 Q503.9426,875.3516 503.302,875.6797 Q502.677,876.0078 502.177,876.7578 Q501.6926,877.5078 501.6926,878.5391 L501.6926,879.6328 Q501.6926,880.8672 502.5832,881.6953 Q503.4738,882.5078 505.0676,882.5078 Q506.0051,882.5078 506.6613,882.2578 Q507.052,882.1016 507.4738,881.6641 Q507.7395,881.3984 507.8801,881.3203 Q508.0363,881.2422 508.2395,881.2422 Q508.5676,881.2422 508.8176,881.5078 Q509.0832,881.7578 509.0832,882.1016 Q509.0832,882.4453 508.7395,882.8516 Q508.2395,883.4297 507.4426,883.7578 Q506.3645,884.2109 505.0676,884.2109 Q503.552,884.2109 502.3488,883.5859 Q501.3645,883.0859 500.677,882.0234 Q499.9895,880.9453 499.9895,879.6641 L499.9895,878.5078 Q499.9895,877.1797 500.5988,876.0391 Q501.2238,874.8828 502.3176,874.2734 Q503.4113,873.6484 504.6457,873.6484 Q505.3801,873.6484 506.0207,873.8203 Q506.677,873.9766 507.2238,874.3359 Z " fill="#000000"/><text fill="#000000" font-family="sans-serif" font-size="12" font-style="italic" lengthAdjust="spacing" textLength="46.043" x="534.0716" y="874.5664">&#171;tabela&#187;</text><text fill="#000000" font-family="sans-serif" font-size="14" lengthAdjust="spacing" textLength="72.3994" x="520.8934" y="891.7363">papel_acao</text><line style="stroke:#181818;stroke-width:0.5;" x1="479.5" x2="606.251" y1="899.8125" y2="899.8125"/><text fill="#000000" font-family="sans-serif" font-size="14" lengthAdjust="spacing" textLength="116.751" x="484.5" y="918.3457">papel_chave &#171;FK&#187;</text><text fill="#000000" font-family="sans-serif" font-size="14" lengthAdjust="spacing" textLength="112.8545" x="484.5" y="935.9551">acao_chave &#171;FK&#187;</text><line style="stroke:#181818;stroke-width:0.5;" x1="479.5" x2="606.251" y1="943.0313" y2="943.0313"/></g><g class="entity" data-entity="GMN8" data-source-line="32" data-uid="ent0009" id="entity_GMN8"><path d="M25.5,576.1094 L25.5,700.5703 A0,0 0 0 0 25.5,700.5703 L168,700.5703 L172,752.3494 L176,700.5703 L317.4624,700.5703 A0,0 0 0 0 317.4624,700.5703 L317.4624,586.1094 L307.4624,576.1094 L25.5,576.1094 A0,0 0 0 0 25.5,576.1094" fill="#FEFFDD" style="stroke:#181818;stroke-width:0.5;"/><path d="M307.4624,576.1094 L307.4624,586.1094 L317.4624,586.1094 L307.4624,576.1094" fill="#FEFFDD" style="stroke:#181818;stroke-width:0.5;"/><text fill="#000000" font-family="sans-serif" font-size="13" lengthAdjust="spacing" textLength="264.4561" x="31.5" y="594.6045">Os dois booleanos DERIVAM comportamento</text><text fill="#000000" font-family="sans-serif" font-size="13" lengthAdjust="spacing" textLength="238.4434" x="31.5" y="610.9561">em vez de repeti-lo em cada consumidor:</text><text fill="#000000" font-family="sans-serif" font-size="13" lengthAdjust="spacing" textLength="256.877" x="38.7236" y="627.3076">escrita  -&gt; o chat confirma antes de executar</text><text fill="#000000" font-family="sans-serif" font-size="13" lengthAdjust="spacing" textLength="230.896" x="38.7236" y="643.6592">sensivel -&gt; negar n&#227;o basta, vira pedido</text><text fill="#000000" font-family="sans-serif" font-size="13" lengthAdjust="spacing" textLength="220.397" x="82.0654" y="660.0107">de aprova&#231;&#227;o (05-estados-solicitacao)</text><text fill="#000000" font-family="sans-serif" font-size="13" lengthAdjust="spacing" textLength="216.0171" x="31.5" y="676.3623">CHECK impede sensivel sem escrita:</text><text fill="#000000" font-family="sans-serif" font-size="13" lengthAdjust="spacing" textLength="210.2915" x="31.5" y="692.7139">n&#227;o h&#225; o que aprovar num SELECT.</text></g><g class="entity" data-entity="recepcao" data-source-line="44" data-uid="ent0011" id="entity_recepcao"><rect fill="#F1F1F1" height="37.6094" rx="2.5" ry="2.5" style="stroke:#181818;stroke-width:0.5;" width="181.3096" x="81" y="430.1094"/><text fill="#000000" font-family="sans-serif" font-size="14" lengthAdjust="spacing" textLength="167.3096" x="88" y="446.6426">recepcao &#8212; Recepcionista</text><line style="stroke:#181818;stroke-width:0.5;" x1="82" x2="261.3096" y1="451.7188" y2="451.7188"/></g><g class="entity" data-entity="medico" data-source-line="45" data-uid="ent0012" id="entity_medico"><rect fill="#F1F1F1" height="37.6094" rx="2.5" ry="2.5" style="stroke:#181818;stroke-width:0.5;" width="153.2754" x="95" y="503.1094"/><text fill="#000000" font-family="sans-serif" font-size="14" lengthAdjust="spacing" textLength="139.2754" x="102" y="519.6426">medico &#8212; Profissional</text><line style="stroke:#181818;stroke-width:0.5;" x1="96" x2="247.2754" y1="524.7188" y2="524.7188"/></g><g class="entity" data-entity="admin" data-source-line="46" data-uid="ent0013" id="entity_admin"><rect fill="#F1F1F1" height="37.6094" rx="2.5" ry="2.5" style="stroke:#181818;stroke-width:0.5;" width="107.3789" x="489.5" y="430.1094"/><text fill="#000000" font-family="sans-serif" font-size="14" lengthAdjust="spacing" textLength="93.3789" x="496.5" y="446.6426">admin &#8212; Dono</text><line style="stroke:#181818;stroke-width:0.5;" x1="490.5" x2="595.8789" y1="451.7188" y2="451.7188"/></g><g class="entity" data-entity="matriz" data-source-line="48" data-uid="ent0014" id="entity_matriz"><rect fill="#F1F1F1" height="345.75" rx="2.5" ry="2.5" style="stroke:#181818;stroke-width:0.5;" width="329.7295" x="7" y="45.6094"/><text fill="#000000" font-family="sans-serif" font-size="14" lengthAdjust="spacing" textLength="101.1787" x="121.2754" y="62.1426">A&#231;&#245;es por papel</text><line style="stroke:#181818;stroke-width:1;" x1="7" x2="336.7295" y1="67.2188" y2="67.2188"/><text fill="#000000" font-family="sans-serif" font-size="14" lengthAdjust="spacing" textLength="47.4688" x="64.9238" y="83.752">checkin</text><text fill="#000000" font-family="sans-serif" font-size="14" lengthAdjust="spacing" textLength="103.5029" x="175.3164" y="83.752">recepcao, admin</text><line style="stroke:#181818;stroke-width:1;" x1="170.3164" x2="170.3164" y1="67.2188" y2="88.8281"/><line style="stroke:#181818;stroke-width:1;" x1="7" x2="336.7295" y1="88.8281" y2="88.8281"/><text fill="#000000" font-family="sans-serif" font-size="14" lengthAdjust="spacing" textLength="100.3857" x="38.4653" y="105.3613">ler_texto_clinico</text><text fill="#000000" font-family="sans-serif" font-size="14" lengthAdjust="spacing" textLength="91.041" x="175.3164" y="105.3613">medico, admin</text><line style="stroke:#181818;stroke-width:1;" x1="170.3164" x2="170.3164" y1="88.8281" y2="110.4375"/><line style="stroke:#181818;stroke-width:1;" x1="7" x2="336.7295" y1="110.4375" y2="110.4375"/><text fill="#000000" font-family="sans-serif" font-size="14" lengthAdjust="spacing" textLength="153.3164" x="12" y="126.9707">criar_entrada_prontuario</text><text fill="#000000" font-family="sans-serif" font-size="14" lengthAdjust="spacing" textLength="45.1309" x="175.3164" y="126.9707">medico</text><line style="stroke:#181818;stroke-width:1;" x1="170.3164" x2="170.3164" y1="110.4375" y2="132.0469"/><line style="stroke:#181818;stroke-width:1;" x1="7" x2="336.7295" y1="132.0469" y2="132.0469"/><text fill="#000000" font-family="sans-serif" font-size="14" lengthAdjust="spacing" textLength="94.958" x="41.1792" y="148.5801">expurgo_logico</text><text fill="#000000" font-family="sans-serif" font-size="14" lengthAdjust="spacing" textLength="38.1309" x="175.3164" y="148.5801">admin</text><line style="stroke:#181818;stroke-width:1;" x1="170.3164" x2="170.3164" y1="132.0469" y2="153.6563"/><line style="stroke:#181818;stroke-width:1;" x1="7" x2="336.7295" y1="153.6563" y2="153.6563"/><text fill="#000000" font-family="sans-serif" font-size="14" lengthAdjust="spacing" textLength="80.9375" x="48.1895" y="170.1895">ver_auditoria</text><text fill="#000000" font-family="sans-serif" font-size="14" lengthAdjust="spacing" textLength="38.1309" x="175.3164" y="170.1895">admin</text><line style="stroke:#181818;stroke-width:1;" x1="170.3164" x2="170.3164" y1="153.6563" y2="175.2656"/><line style="stroke:#181818;stroke-width:1;" x1="7" x2="336.7295" y1="175.2656" y2="175.2656"/><text fill="#000000" font-family="sans-serif" font-size="14" lengthAdjust="spacing" textLength="77.0547" x="50.1309" y="191.7988">ver_estoque</text><text fill="#000000" font-family="sans-serif" font-size="14" lengthAdjust="spacing" textLength="156.4131" x="175.3164" y="191.7988">recepcao, medico, admin</text><line style="stroke:#181818;stroke-width:1;" x1="170.3164" x2="170.3164" y1="175.2656" y2="196.875"/><line style="stroke:#181818;stroke-width:1;" x1="7" x2="336.7295" y1="196.875" y2="196.875"/><text fill="#000000" font-family="sans-serif" font-size="14" lengthAdjust="spacing" textLength="85.6133" x="45.8516" y="213.4082">gerir_estoque</text><text fill="#000000" font-family="sans-serif" font-size="14" lengthAdjust="spacing" textLength="103.5029" x="175.3164" y="213.4082">recepcao, admin</text><line style="stroke:#181818;stroke-width:1;" x1="170.3164" x2="170.3164" y1="196.875" y2="218.4844"/><line style="stroke:#181818;stroke-width:1;" x1="7" x2="336.7295" y1="218.4844" y2="218.4844"/><text fill="#000000" font-family="sans-serif" font-size="14" lengthAdjust="spacing" textLength="97.2754" x="40.0205" y="235.0176">configurar_bom</text><text fill="#000000" font-family="sans-serif" font-size="14" lengthAdjust="spacing" textLength="38.1309" x="175.3164" y="235.0176">admin</text><line style="stroke:#181818;stroke-width:1;" x1="170.3164" x2="170.3164" y1="218.4844" y2="240.0938"/><line style="stroke:#181818;stroke-width:1;" x1="7" x2="336.7295" y1="240.0938" y2="240.0938"/><text fill="#000000" font-family="sans-serif" font-size="14" lengthAdjust="spacing" textLength="91.8271" x="42.7446" y="256.627">ver_reativacao</text><text fill="#000000" font-family="sans-serif" font-size="14" lengthAdjust="spacing" textLength="156.4131" x="175.3164" y="256.627">recepcao, medico, admin</text><line style="stroke:#181818;stroke-width:1;" x1="170.3164" x2="170.3164" y1="240.0938" y2="261.7031"/><line style="stroke:#181818;stroke-width:1;" x1="7" x2="336.7295" y1="261.7031" y2="261.7031"/><text fill="#000000" font-family="sans-serif" font-size="14" lengthAdjust="spacing" textLength="100.3857" x="38.4653" y="278.2363">gerir_reativacao</text><text fill="#000000" font-family="sans-serif" font-size="14" lengthAdjust="spacing" textLength="103.5029" x="175.3164" y="278.2363">recepcao, admin</text><line style="stroke:#181818;stroke-width:1;" x1="170.3164" x2="170.3164" y1="261.7031" y2="283.3125"/><line style="stroke:#181818;stroke-width:1;" x1="7" x2="336.7295" y1="283.3125" y2="283.3125"/><text fill="#000000" font-family="sans-serif" font-size="14" lengthAdjust="spacing" textLength="87.9375" x="44.6895" y="299.8457">ver_financeiro</text><text fill="#000000" font-family="sans-serif" font-size="14" lengthAdjust="spacing" textLength="156.4131" x="175.3164" y="299.8457">recepcao, medico, admin</text><line style="stroke:#181818;stroke-width:1;" x1="170.3164" x2="170.3164" y1="283.3125" y2="304.9219"/><line style="stroke:#181818;stroke-width:1;" x1="7" x2="336.7295" y1="304.9219" y2="304.9219"/><text fill="#000000" font-family="sans-serif" font-size="14" lengthAdjust="spacing" textLength="96.4961" x="40.4102" y="321.4551">gerir_financeiro</text><text fill="#000000" font-family="sans-serif" font-size="14" lengthAdjust="spacing" textLength="103.5029" x="175.3164" y="321.4551">recepcao, admin</text><line style="stroke:#181818;stroke-width:1;" x1="170.3164" x2="170.3164" y1="304.9219" y2="326.5313"/><line style="stroke:#181818;stroke-width:1;" x1="7" x2="336.7295" y1="326.5313" y2="326.5313"/><text fill="#000000" font-family="sans-serif" font-size="14" lengthAdjust="spacing" textLength="73.9512" x="51.6826" y="343.0645">ver_agenda</text><text fill="#000000" font-family="sans-serif" font-size="14" lengthAdjust="spacing" textLength="156.4131" x="175.3164" y="343.0645">recepcao, medico, admin</text><line style="stroke:#181818;stroke-width:1;" x1="170.3164" x2="170.3164" y1="326.5313" y2="348.1406"/><line style="stroke:#181818;stroke-width:1;" x1="7" x2="336.7295" y1="348.1406" y2="348.1406"/><text fill="#000000" font-family="sans-serif" font-size="14" lengthAdjust="spacing" textLength="82.5098" x="47.4033" y="364.6738">gerir_agenda</text><text fill="#000000" font-family="sans-serif" font-size="14" lengthAdjust="spacing" textLength="103.5029" x="175.3164" y="364.6738">recepcao, admin</text><line style="stroke:#181818;stroke-width:1;" x1="170.3164" x2="170.3164" y1="348.1406" y2="369.75"/><line style="stroke:#181818;stroke-width:1;" x1="7" x2="336.7295" y1="369.75" y2="369.75"/><text fill="#000000" font-family="sans-serif" font-size="14" lengthAdjust="spacing" textLength="76.2617" x="50.5273" y="386.2832">gerir_escala</text><text fill="#000000" font-family="sans-serif" font-size="14" lengthAdjust="spacing" textLength="38.1309" x="175.3164" y="386.2832">admin</text><line style="stroke:#181818;stroke-width:1;" x1="170.3164" x2="170.3164" y1="369.75" y2="391.3594"/></g><g class="entity" data-entity="GMN15" data-source-line="67" data-uid="ent0016" id="entity_GMN15"><path d="M404,180.6094 L404,214.1094 L344.2,218.1094 L404,222.1094 L404,256.0156 A0,0 0 0 0 404,256.0156 L682.2451,256.0156 A0,0 0 0 0 682.2451,256.0156 L682.2451,190.6094 L672.2451,180.6094 L404,180.6094 A0,0 0 0 0 404,180.6094" fill="#FEFFDD" style="stroke:#181818;stroke-width:0.5;"/><path d="M672.2451,180.6094 L672.2451,190.6094 L682.2451,190.6094 L672.2451,180.6094" fill="#FEFFDD" style="stroke:#181818;stroke-width:0.5;"/><text fill="#000000" font-family="sans-serif" font-size="13" lengthAdjust="spacing" textLength="242.8042" x="410" y="199.1045">criar_entrada_prontuario &#233; S&#211; do m&#233;dico:</text><text fill="#000000" font-family="sans-serif" font-size="13" lengthAdjust="spacing" textLength="235.5742" x="410" y="215.4561">o admin l&#234; o prontu&#225;rio mas n&#227;o escreve</text><text fill="#000000" font-family="sans-serif" font-size="13" lengthAdjust="spacing" textLength="218.9688" x="410" y="231.8076">nele. Quem &#233; dono da cl&#237;nica n&#227;o vira</text><text fill="#000000" font-family="sans-serif" font-size="13" lengthAdjust="spacing" textLength="257.2451" x="410" y="248.1592">autor de ato cl&#237;nico por ter o login mais forte.</text></g><!--link papel to papel_acao--><g class="link" data-entity-1="papel" data-entity-2="papel_acao" data-source-line="28" data-uid="lnk6" id="link_papel_papel_acao"><path codeLine="28" d="M239.21,943.1094 C307.22,943.1094 405.3,943.1094 472.25,943.1094" fill="none" id="papel-to-papel_acao" style="stroke:#181818;stroke-width:1;"/><polygon fill="#181818" points="478.25,943.1094,469.25,939.1094,473.25,943.1094,469.25,947.1094,478.25,943.1094" style="stroke:#181818;stroke-width:1;"/><text fill="#000000" font-family="sans-serif" font-size="13" lengthAdjust="spacing" textLength="7.23" x="247.0142" y="953.2374">1</text><text fill="#000000" font-family="sans-serif" font-size="13" lengthAdjust="spacing" textLength="19.5127" x="451.1706" y="961.7686">0..*</text></g><!--link acao to papel_acao--><g class="link" data-entity-1="acao" data-entity-2="papel_acao" data-source-line="29" data-uid="lnk7" id="link_acao_papel_acao"><path codeLine="29" d="M242.69,878.3594 C310.74,878.3594 406.45,878.3594 472.27,878.3594" fill="none" id="acao-to-papel_acao" style="stroke:#181818;stroke-width:1;"/><polygon fill="#181818" points="478.27,878.3594,469.27,874.3594,473.27,878.3594,469.27,882.3594,478.27,878.3594" style="stroke:#181818;stroke-width:1;"/><text fill="#000000" font-family="sans-serif" font-size="13" lengthAdjust="spacing" textLength="7.23" x="250.4075" y="898.0988">1</text><text fill="#000000" font-family="sans-serif" font-size="13" lengthAdjust="spacing" textLength="19.5127" x="451.1928" y="889.9366">0..*</text></g><!--SRC=[hLN1Rjj64BtpAmQyr2uaoZdqOZW2P4L1YwInQnj5RyAG757RB7VetQNW9Z3GVsX_mCYXS84U-mNyatv9PvUoBAbru4DuukwyVVDs-6RebTS4vzXqzye10NP_T7-JWuEBqydqC77lbMdGOWrQ6VA_D0Hi_P8JJGiFdi6gQkcXL9OAhzWaoLVmcesdOyWQZSOeKusm8ETuvAxrwEZenR1VPhA40uyvQNJGO4Dw05WW3_h5FBmVPi8tWHgzLHzWfLO4Xk5qycvwDW3JVUAml19LbuLLZOT_VlqTd2r6MkKZcsEHUGUw-nDAl6vLbYGD5k-n8aYdwBixpHN3WQCQ2hcTAd2koaXHQSvH7wRmCG69eLiBX9EJNl1u74CINA9eEeQhsKzN4Zr_Cnx7VSk-rN8LjYNLidERR9Z2lPvFL7CfHF6Ld5pIeu1EpyxUpYRluguZuwGkUc-xZ6X9jPlyiRJ_bT37UY4d9wyV50Jm_kvjSXkA6KgIlaXXE1n3UfHbNwTR2PAOvJFnnB0doDbxhe4NCP5mdpaeMRoOCsj2mmvUpIw- -t7oFHHSD-8-hCduW9GFjw8FSbMmr91NGyrXhy0I1MjSMwkIxV5EyK2aSAYs3v25iZK2YbzTeA4RAbgFThUmSi9GXROtN8xEuq2yQ14QAYL3H6y_meIDvLNe9JbnSFJDaEHGoMxeMAj2T0HloxdfjxFf6r2r4D5Zmk38jTuWFgPTTdUY-xfze1OrRGsNixUpwLMMa2aXL3Eqt_3BFRlDLqdPwGiduFnd6HoGolYW9lWbjDz5NCWqKLAr56GyF8Gt-5egN_JeSyiBvPp0KKTm7zj0iQoLYSXNR3WYubQIrDX0EbaFF75MRywUexzqxFyb5J85uULu8sEmPW3GPEUURhnqI1mX762zW4UGV4cqSwcU5MVEvVCPtw9LMzXWvfkcjHNFPIYjQHwEhoG7jgNoB3px0J4M1rVigDiNK95LJq0t6aCpLAqLeRcquruMI-ZLAZRqCn8zXTvcN2Y3fY1bdyNu57gdHEBF4f_3zd_8_L8LgBTgVRiULltVJcPLxu_FVTlk7YwxtsIKGTtT1nMXbRddY_yaXXxTtGLuBQQBZHuQdrOK-fuqPV13AzD0o4enBuJ1fhk_mh-gHuSn951inHnnxiWlUOtWQ6bFLZ85Knd98MDr8HEKjYR6lm00]--></g></svg>