<svg xmlns="http://www.w3.org/2000/svg" xmlns:xlink="http://www.w3.org/1999/xlink" contentStyleType="text/css" data-diagram-type="SEQUENCE" height="1343px" preserveAspectRatio="none" style="width:1242px;height:1343px;background:#FFFFFF;" version="1.1" viewBox="0 0 1242 1343" width="1242px" zoomAndPan="magnify"><title>Sequ&#234;ncia: campanha de reativa&#231;&#227;o</title><defs/><g><text fill="#000000" font-family="sans-serif" font-size="14" font-weight="bold" lengthAdjust="spacing" textLength="241.2129" x="502.0005" y="29.5332">Sequ&#234;ncia: campanha de reativa&#231;&#227;o</text><rect fill="none" height="193.9453" style="stroke:#000000;stroke-width:1.5;" width="446.0571" x="268.04" y="373.0313"/><rect fill="none" height="131.2422" style="stroke:#000000;stroke-width:1.5;" width="426.0571" x="278.04" y="428.7344"/><rect fill="none" height="505.8125" style="stroke:#000000;stroke-width:1.5;" width="623.3647" x="612.8491" y="738.7344"/><rect fill="none" height="252.6484" style="stroke:#000000;stroke-width:1.5;" width="603.3647" x="622.8491" y="984.8984"/><g><title>Recep..o ou Dono</title><rect fill="#000000" fill-opacity="0.00000" height="1140.3281" width="8" x="63.9307" y="121.2188"/><line style="stroke:#181818;stroke-width:0.5;stroke-dasharray:5,5;" x1="67" x2="67" y1="121.2188" y2="1261.5469"/></g><g><title>Painel</title><rect fill="#000000" fill-opacity="0.00000" height="1140.3281" width="8" x="310.4985" y="121.2188"/><line style="stroke:#181818;stroke-width:0.5;stroke-dasharray:5,5;" x1="314.04" x2="314.04" y1="121.2188" y2="1261.5469"/></g><g><title>Postgres</title><rect fill="#000000" fill-opacity="0.00000" height="1140.3281" width="8" x="659.4731" y="121.2188"/><line style="stroke:#181818;stroke-width:0.5;stroke-dasharray:5,5;" x1="662.8491" x2="662.8491" y1="121.2188" y2="1261.5469"/></g><g><title>n8n . worker</title><rect fill="#000000" fill-opacity="0.00000" height="1140.3281" width="8" x="904.8667" y="121.2188"/><line style="stroke:#181818;stroke-width:0.5;stroke-dasharray:5,5;" x1="907.9634" x2="907.9634" y1="121.2188" y2="1261.5469"/></g><g><title>WAHA</title><rect fill="#000000" fill-opacity="0.00000" height="1140.3281" width="8" x="1080.6328" y="121.2188"/><line style="stroke:#181818;stroke-width:0.5;stroke-dasharray:5,5;" x1="1084.6328" x2="1084.6328" y1="121.2188" y2="1261.5469"/></g><g><title>Paciente</title><rect fill="#000000" fill-opacity="0.00000" height="1140.3281" width="8" x="1181.9727" y="121.2188"/><line style="stroke:#181818;stroke-width:0.5;stroke-dasharray:5,5;" x1="1185.7314" x2="1185.7314" y1="121.2188" y2="1261.5469"/></g><g class="participant participant-head" data-participant="Op"><text fill="#000000" font-family="sans-serif" font-size="14" lengthAdjust="spacing" textLength="119.8613" x="5" y="118.1426">Recep&#231;&#227;o ou Dono</text><ellipse cx="67.9307" cy="52.1094" fill="#E2E2F0" rx="8" ry="8" style="stroke:#181818;stroke-width:0.5;"/><path d="M67.9307,60.1094 L67.9307,87.1094 M54.9307,68.1094 L80.9307,68.1094 M67.9307,87.1094 L54.9307,102.1094 M67.9307,87.1094 L80.9307,102.1094" fill="none" style="stroke:#181818;stroke-width:0.5;"/></g><g class="participant participant-tail" data-participant="Op"><text fill="#000000" font-family="sans-serif" font-size="14" lengthAdjust="spacing" textLength="119.8613" x="5" y="1275.0801">Recep&#231;&#227;o ou Dono</text><ellipse cx="67.9307" cy="1286.6563" fill="#E2E2F0" rx="8" ry="8" style="stroke:#181818;stroke-width:0.5;"/><path d="M67.9307,1294.6563 L67.9307,1321.6563 M54.9307,1302.6563 L80.9307,1302.6563 M67.9307,1321.6563 L54.9307,1336.6563 M67.9307,1321.6563 L80.9307,1336.6563" fill="none" style="stroke:#181818;stroke-width:0.5;"/></g><g class="participant participant-head" data-participant="P"><rect fill="#E2E2F0" height="31.6094" rx="2.5" ry="2.5" style="stroke:#181818;stroke-width:0.5;" width="52.917" x="288.04" y="88.6094"/><text fill="#000000" font-family="sans-serif" font-size="14" lengthAdjust="spacing" textLength="38.917" x="295.04" y="110.1426">Painel</text></g><g class="participant participant-tail" data-participant="P"><rect fill="#E2E2F0" height="31.6094" rx="2.5" ry="2.5" style="stroke:#181818;stroke-width:0.5;" width="52.917" x="288.04" y="1260.5469"/><text fill="#000000" font-family="sans-serif" font-size="14" lengthAdjust="spacing" textLength="38.917" x="295.04" y="1282.0801">Painel</text></g><g class="participant participant-head" data-participant="DB"><text fill="#000000" font-family="sans-serif" font-size="14" lengthAdjust="spacing" textLength="55.248" x="632.8491" y="118.1426">Postgres</text><path d="M645.4731,67.6094 C645.4731,57.6094 663.4731,57.6094 663.4731,57.6094 C663.4731,57.6094 681.4731,57.6094 681.4731,67.6094 L681.4731,93.6094 C681.4731,103.6094 663.4731,103.6094 663.4731,103.6094 C663.4731,103.6094 645.4731,103.6094 645.4731,93.6094 L645.4731,67.6094" fill="#E2E2F0" style="stroke:#181818;stroke-width:0.5;"/><path d="M645.4731,67.6094 C645.4731,77.6094 663.4731,77.6094 663.4731,77.6094 C663.4731,77.6094 681.4731,77.6094 681.4731,67.6094" fill="none" style="stroke:#181818;stroke-width:0.5;"/></g><g class="participant participant-tail" data-participant="DB"><text fill="#000000" font-family="sans-serif" font-size="14" lengthAdjust="spacing" textLength="55.248" x="632.8491" y="1275.0801">Postgres</text><path d="M645.4731,1288.1563 C645.4731,1278.1563 663.4731,1278.1563 663.4731,1278.1563 C663.4731,1278.1563 681.4731,1278.1563 681.4731,1288.1563 L681.4731,1314.1563 C681.4731,1324.1563 663.4731,1324.1563 663.4731,1324.1563 C663.4731,1324.1563 645.4731,1324.1563 645.4731,1314.1563 L645.4731,1288.1563" fill="#E2E2F0" style="stroke:#181818;stroke-width:0.5;"/><path d="M645.4731,1288.1563 C645.4731,1298.1563 663.4731,1298.1563 663.4731,1298.1563 C663.4731,1298.1563 681.4731,1298.1563 681.4731,1288.1563" fill="none" style="stroke:#181818;stroke-width:0.5;"/></g><g class="participant participant-head" data-participant="W"><rect fill="#E2E2F0" height="31.6094" rx="2.5" ry="2.5" style="stroke:#181818;stroke-width:0.5;" width="91.8066" x="862.9634" y="88.6094"/><text fill="#000000" font-family="sans-serif" font-size="14" lengthAdjust="spacing" textLength="77.8066" x="869.9634" y="110.1426">n8n &#183; worker</text></g><g class="participant participant-tail" data-participant="W"><rect fill="#E2E2F0" height="31.6094" rx="2.5" ry="2.5" style="stroke:#181818;stroke-width:0.5;" width="91.8066" x="862.9634" y="1260.5469"/><text fill="#000000" font-family="sans-serif" font-size="14" lengthAdjust="spacing" textLength="77.8066" x="869.9634" y="1282.0801">n8n &#183; worker</text></g><g class="participant participant-head" data-participant="WA"><rect fill="#E2E2F0" height="31.6094" rx="2.5" ry="2.5" style="stroke:#181818;stroke-width:0.5;" width="56" x="1056.6328" y="88.6094"/><text fill="#000000" font-family="sans-serif" font-size="14" lengthAdjust="spacing" textLength="42" x="1063.6328" y="110.1426">WAHA</text></g><g class="participant participant-tail" data-participant="WA"><rect fill="#E2E2F0" height="31.6094" rx="2.5" ry="2.5" style="stroke:#181818;stroke-width:0.5;" width="56" x="1056.6328" y="1260.5469"/><text fill="#000000" font-family="sans-serif" font-size="14" lengthAdjust="spacing" textLength="42" x="1063.6328" y="1282.0801">WAHA</text></g><g class="participant participant-head" data-participant="Paciente"><text fill="#000000" font-family="sans-serif" font-size="14" lengthAdjust="spacing" textLength="54.4824" x="1155.7314" y="118.1426">Paciente</text><ellipse cx="1185.9727" cy="52.1094" fill="#E2E2F0" rx="8" ry="8" style="stroke:#181818;stroke-width:0.5;"/><path d="M1185.9727,60.1094 L1185.9727,87.1094 M1172.9727,68.1094 L1198.9727,68.1094 M1185.9727,87.1094 L1172.9727,102.1094 M1185.9727,87.1094 L1198.9727,102.1094" fill="none" style="stroke:#181818;stroke-width:0.5;"/></g><g class="participant participant-tail" data-participant="Paciente"><text fill="#000000" font-family="sans-serif" font-size="14" lengthAdjust="spacing" textLength="54.4824" x="1155.7314" y="1275.0801">Paciente</text><ellipse cx="1185.9727" cy="1286.6563" fill="#E2E2F0" rx="8" ry="8" style="stroke:#181818;stroke-width:0.5;"/><path d="M1185.9727,1294.6563 L1185.9727,1321.6563 M1172.9727,1302.6563 L1198.9727,1302.6563 M1185.9727,1321.6563 L1172.9727,1336.6563 M1185.9727,1321.6563 L1198.9727,1336.6563" fill="none" style="stroke:#181818;stroke-width:0.5;"/></g><g class="message" data-participant-1="Op" data-participant-2="P"><polygon fill="#181818" points="302.4985,149.5703,312.4985,153.5703,302.4985,157.5703,306.4985,153.5703" style="stroke:#181818;stroke-width:1;"/><line style="stroke:#181818;stroke-width:1;" x1="67.9307" x2="308.4985" y1="153.5703" y2="153.5703"/><text fill="#000000" font-family="sans-serif" font-size="13" lengthAdjust="spacing" textLength="222.5679" x="74.9307" y="148.7139">cria a campanha (janela_dias, passos)</text></g><g class="message" data-participant-1="P" data-participant-2="DB"><polygon fill="#181818" points="651.4731,179.9219,661.4731,183.9219,651.4731,187.9219,655.4731,183.9219" style="stroke:#181818;stroke-width:1;"/><line style="stroke:#181818;stroke-width:1;" x1="314.4985" x2="657.4731" y1="183.9219" y2="183.9219"/><text fill="#000000" font-family="sans-serif" font-size="13" lengthAdjust="spacing" textLength="216.4233" x="321.4985" y="179.0654">reativacao_campanhas (ativa = false)</text></g><path d="M668,196.9219 L668,238.9219 L871,238.9219 L871,206.9219 L861,196.9219 L668,196.9219" fill="#FEFFDD" style="stroke:#181818;stroke-width:0.5;"/><path d="M861,196.9219 L861,206.9219 L871,206.9219 L861,196.9219" fill="#FEFFDD" style="stroke:#181818;stroke-width:0.5;"/><text fill="#000000" font-family="sans-serif" font-size="13" lengthAdjust="spacing" textLength="182.0825" x="674" y="215.417">uq: no m&#225;ximo UMA campanha</text><text fill="#000000" font-family="sans-serif" font-size="13" lengthAdjust="spacing" textLength="93.9326" x="674" y="231.7686">ativa por cl&#237;nica.</text><g class="message" data-participant-1="Op" data-participant-2="P"><polygon fill="#181818" points="302.4985,262.9766,312.4985,266.9766,302.4985,270.9766,306.4985,266.9766" style="stroke:#181818;stroke-width:1;"/><line style="stroke:#181818;stroke-width:1;" x1="67.9307" x2="308.4985" y1="266.9766" y2="266.9766"/><text fill="#000000" font-family="sans-serif" font-size="13" lengthAdjust="spacing" textLength="91.7808" x="74.9307" y="262.1201">monta o p&#250;blico</text></g><g class="message" data-participant-1="P" data-participant-2="DB"><polygon fill="#181818" points="651.4731,293.3281,661.4731,297.3281,651.4731,301.3281,655.4731,297.3281" style="stroke:#181818;stroke-width:1;"/><line style="stroke:#181818;stroke-width:1;" x1="314.4985" x2="657.4731" y1="297.3281" y2="297.3281"/><text fill="#000000" font-family="sans-serif" font-size="13" lengthAdjust="spacing" textLength="215.3633" x="321.4985" y="292.4717">pacientes sem atendimento na janela</text></g><g class="message" data-participant-1="DB" data-participant-2="P"><polygon fill="#181818" points="325.4985,323.6797,315.4985,327.6797,325.4985,331.6797,321.4985,327.6797" style="stroke:#181818;stroke-width:1;"/><line style="stroke:#181818;stroke-width:1;stroke-dasharray:2,2;" x1="319.4985" x2="662.4731" y1="327.6797" y2="327.6797"/><text fill="#000000" font-family="sans-serif" font-size="13" lengthAdjust="spacing" textLength="62.8799" x="331.4985" y="322.8232">candidatos</text></g><g class="message" data-participant-1="P" data-participant-2="DB"><polygon fill="#181818" points="651.4731,354.0313,661.4731,358.0313,651.4731,362.0313,655.4731,358.0313" style="stroke:#181818;stroke-width:1;"/><line style="stroke:#181818;stroke-width:1;" x1="314.4985" x2="657.4731" y1="358.0313" y2="358.0313"/><text fill="#000000" font-family="sans-serif" font-size="13" lengthAdjust="spacing" textLength="201.9824" x="321.4985" y="353.1748">reativacao_alvos (passo_atual = 0)</text></g><path d="M268.04,373.0313 L461.8545,373.0313 L461.8545,381.3828 L451.8545,391.3828 L268.04,391.3828 L268.04,373.0313" fill="#EEEEEE" style="stroke:#000000;stroke-width:1.5;"/><rect fill="none" height="193.9453" style="stroke:#000000;stroke-width:1.5;" width="446.0571" x="268.04" y="373.0313"/><text fill="#000000" font-family="sans-serif" font-size="13" font-weight="bold" lengthAdjust="spacing" textLength="148.8145" x="283.04" y="387.5264">antes de qualquer envio</text><g class="message" data-participant-1="P" data-participant-2="DB"><polygon fill="#181818" points="651.4731,409.7344,661.4731,413.7344,651.4731,417.7344,655.4731,413.7344" style="stroke:#181818;stroke-width:1;"/><line style="stroke:#181818;stroke-width:1;" x1="314.4985" x2="657.4731" y1="413.7344" y2="413.7344"/><text fill="#000000" font-family="sans-serif" font-size="13" lengthAdjust="spacing" textLength="239.9287" x="321.4985" y="408.8779">&#250;ltimo consentimento_eventos do contato</text></g><path d="M278.04,428.7344 L338.2109,428.7344 L338.2109,437.0859 L328.2109,447.0859 L278.04,447.0859 L278.04,428.7344" fill="#EEEEEE" style="stroke:#000000;stroke-width:1.5;"/><rect fill="none" height="131.2422" style="stroke:#000000;stroke-width:1.5;" width="426.0571" x="278.04" y="428.7344"/><text fill="#000000" font-family="sans-serif" font-size="13" font-weight="bold" lengthAdjust="spacing" textLength="15.1709" x="293.04" y="443.2295">alt</text><text fill="#000000" font-family="sans-serif" font-size="11" font-weight="bold" lengthAdjust="spacing" textLength="125.5708" x="353.2109" y="442.1533">[&#250;ltimo evento = optout]</text><g class="message" data-participant-1="DB" data-participant-2="P"><polygon fill="#181818" points="325.4985,465.4375,315.4985,469.4375,325.4985,473.4375,321.4985,469.4375" style="stroke:#181818;stroke-width:1;"/><line style="stroke:#181818;stroke-width:1;stroke-dasharray:2,2;" x1="319.4985" x2="662.4731" y1="469.4375" y2="469.4375"/><text fill="#000000" font-family="sans-serif" font-size="13" lengthAdjust="spacing" textLength="22.4009" x="331.4985" y="464.5811">fora</text></g><path d="M319,482.4375 L319,508.4375 L587,508.4375 L587,492.4375 L577,482.4375 L319,482.4375" fill="#FEFFDD" style="stroke:#181818;stroke-width:0.5;"/><path d="M577,482.4375 L577,492.4375 L587,492.4375 L577,482.4375" fill="#FEFFDD" style="stroke:#181818;stroke-width:0.5;"/><text fill="#000000" font-family="sans-serif" font-size="13" lengthAdjust="spacing" textLength="247.1587" x="325" y="500.9326">optout vence sempre, &#233; prova append-only</text><line style="stroke:#000000;stroke-width:1;stroke-dasharray:2,2;" x1="278.04" x2="704.0972" y1="514.7891" y2="514.7891"/><text fill="#000000" font-family="sans-serif" font-size="11" font-weight="bold" lengthAdjust="spacing" textLength="119.7808" x="283.04" y="526.208">[optin ou sem registro]</text><g class="message" data-participant-1="DB" data-participant-2="P"><polygon fill="#181818" points="325.4985,547.9766,315.4985,551.9766,325.4985,555.9766,321.4985,551.9766" style="stroke:#181818;stroke-width:1;"/><line style="stroke:#181818;stroke-width:1;stroke-dasharray:2,2;" x1="319.4985" x2="662.4731" y1="551.9766" y2="551.9766"/><text fill="#000000" font-family="sans-serif" font-size="13" lengthAdjust="spacing" textLength="67.9326" x="331.4985" y="547.1201">entra na fila</text></g><g class="message" data-participant-1="Op" data-participant-2="P"><polygon fill="#181818" points="302.4985,592.3281,312.4985,596.3281,302.4985,600.3281,306.4985,596.3281" style="stroke:#181818;stroke-width:1;"/><line style="stroke:#181818;stroke-width:1;" x1="67.9307" x2="308.4985" y1="596.3281" y2="596.3281"/><text fill="#000000" font-family="sans-serif" font-size="13" lengthAdjust="spacing" textLength="122.1099" x="74.9307" y="591.4717">dispara em modo dry</text></g><g class="message" data-participant-1="P" data-participant-2="DB"><polygon fill="#181818" points="651.4731,622.6797,661.4731,626.6797,651.4731,630.6797,655.4731,626.6797" style="stroke:#181818;stroke-width:1;"/><line style="stroke:#181818;stroke-width:1;" x1="314.4985" x2="657.4731" y1="626.6797" y2="626.6797"/><text fill="#000000" font-family="sans-serif" font-size="13" lengthAdjust="spacing" textLength="324.9746" x="321.4985" y="621.8232">reativacao_envios (modo = 'dry', wa_status = 'simulado')</text></g><path d="M168,639.6797 L168,665.6797 L459,665.6797 L459,649.6797 L449,639.6797 L168,639.6797" fill="#FEFFDD" style="stroke:#181818;stroke-width:0.5;"/><path d="M449,639.6797 L449,649.6797 L459,649.6797 L449,639.6797" fill="#FEFFDD" style="stroke:#181818;stroke-width:0.5;"/><text fill="#000000" font-family="sans-serif" font-size="13" lengthAdjust="spacing" textLength="270.2705" x="174" y="658.1748">nada sai pelo WhatsApp &#8212; s&#243; mede o alcance</text><g class="message" data-participant-1="Op" data-participant-2="P"><polygon fill="#181818" points="302.4985,689.3828,312.4985,693.3828,302.4985,697.3828,306.4985,693.3828" style="stroke:#181818;stroke-width:1;"/><line style="stroke:#181818;stroke-width:1;" x1="67.9307" x2="308.4985" y1="693.3828" y2="693.3828"/><text fill="#000000" font-family="sans-serif" font-size="13" lengthAdjust="spacing" textLength="102.6226" x="74.9307" y="688.5264">ativa a campanha</text></g><g class="message" data-participant-1="P" data-participant-2="DB"><polygon fill="#181818" points="651.4731,719.7344,661.4731,723.7344,651.4731,727.7344,655.4731,723.7344" style="stroke:#181818;stroke-width:1;"/><line style="stroke:#181818;stroke-width:1;" x1="314.4985" x2="657.4731" y1="723.7344" y2="723.7344"/><text fill="#000000" font-family="sans-serif" font-size="13" lengthAdjust="spacing" textLength="128.9971" x="321.4985" y="718.8779">campanha ativa = true</text></g><path d="M612.8491,738.7344 L685.2837,738.7344 L685.2837,747.0859 L675.2837,757.0859 L612.8491,757.0859 L612.8491,738.7344" fill="#EEEEEE" style="stroke:#000000;stroke-width:1.5;"/><rect fill="none" height="505.8125" style="stroke:#000000;stroke-width:1.5;" width="623.3647" x="612.8491" y="738.7344"/><text fill="#000000" font-family="sans-serif" font-size="13" font-weight="bold" lengthAdjust="spacing" textLength="27.4346" x="627.8491" y="753.2295">loop</text><text fill="#000000" font-family="sans-serif" font-size="11" font-weight="bold" lengthAdjust="spacing" textLength="250.6206" x="700.2837" y="752.1533">[a cada passo vencido (proximo_envio &lt;= now)]</text><g class="message" data-participant-1="W" data-participant-2="DB"><polygon fill="#181818" points="674.4731,775.4375,664.4731,779.4375,674.4731,783.4375,670.4731,779.4375" style="stroke:#181818;stroke-width:1;"/><line style="stroke:#181818;stroke-width:1;" x1="668.4731" x2="907.8667" y1="779.4375" y2="779.4375"/><text fill="#000000" font-family="sans-serif" font-size="13" lengthAdjust="spacing" textLength="182.8125" x="680.4731" y="774.5811">alvos ativos com passo vencido</text></g><g class="message" data-participant-1="W" data-participant-2="WA"><polygon fill="#181818" points="1072.6328,805.7891,1082.6328,809.7891,1072.6328,813.7891,1076.6328,809.7891" style="stroke:#181818;stroke-width:1;"/><line style="stroke:#181818;stroke-width:1;" x1="908.8667" x2="1078.6328" y1="809.7891" y2="809.7891"/><text fill="#000000" font-family="sans-serif" font-size="13" lengthAdjust="spacing" textLength="151.7661" x="915.8667" y="804.9326">envia o template do passo</text></g><g class="message" data-participant-1="WA" data-participant-2="Paciente"><polygon fill="#181818" points="1173.9727,836.1406,1183.9727,840.1406,1173.9727,844.1406,1177.9727,840.1406" style="stroke:#181818;stroke-width:1;"/><line style="stroke:#181818;stroke-width:1;stroke-dasharray:2,2;" x1="1084.6328" x2="1179.9727" y1="840.1406" y2="840.1406"/><text fill="#000000" font-family="sans-serif" font-size="13" lengthAdjust="spacing" textLength="64.3081" x="1091.6328" y="835.2842">mensagem</text></g><g class="message" data-participant-1="W" data-participant-2="DB"><polygon fill="#181818" points="674.4731,866.4922,664.4731,870.4922,674.4731,874.4922,670.4731,870.4922" style="stroke:#181818;stroke-width:1;"/><line style="stroke:#181818;stroke-width:1;" x1="668.4731" x2="907.8667" y1="870.4922" y2="870.4922"/><text fill="#000000" font-family="sans-serif" font-size="13" lengthAdjust="spacing" textLength="188.8618" x="680.4731" y="865.6357">reativacao_envios (modo = 'live')</text></g><path d="M668,883.4922 L668,942.4922 L945,942.4922 L945,893.4922 L935,883.4922 L668,883.4922" fill="#FEFFDD" style="stroke:#181818;stroke-width:0.5;"/><path d="M935,883.4922 L935,893.4922 L945,893.4922 L935,883.4922" fill="#FEFFDD" style="stroke:#181818;stroke-width:0.5;"/><text fill="#000000" font-family="sans-serif" font-size="13" lengthAdjust="spacing" textLength="229.0869" x="674" y="901.9873">uq_envio_live_por_passo (alvo, passo):</text><text fill="#000000" font-family="sans-serif" font-size="13" lengthAdjust="spacing" textLength="256.5215" x="674" y="918.3389">idempot&#234;ncia do envio REAL &#8212; reprocessar</text><text fill="#000000" font-family="sans-serif" font-size="13" lengthAdjust="spacing" textLength="171.9961" x="674" y="934.6904">o worker n&#227;o manda de novo.</text><g class="message" data-participant-1="W" data-participant-2="DB"><polygon fill="#181818" points="674.4731,965.8984,664.4731,969.8984,674.4731,973.8984,670.4731,969.8984" style="stroke:#181818;stroke-width:1;"/><line style="stroke:#181818;stroke-width:1;" x1="668.4731" x2="907.8667" y1="969.8984" y2="969.8984"/><text fill="#000000" font-family="sans-serif" font-size="13" lengthAdjust="spacing" textLength="191.5151" x="680.4731" y="965.042">passo_atual += 1, proximo_envio</text></g><path d="M622.8491,984.8984 L683.02,984.8984 L683.02,993.25 L673.02,1003.25 L622.8491,1003.25 L622.8491,984.8984" fill="#EEEEEE" style="stroke:#000000;stroke-width:1.5;"/><rect fill="none" height="252.6484" style="stroke:#000000;stroke-width:1.5;" width="603.3647" x="622.8491" y="984.8984"/><text fill="#000000" font-family="sans-serif" font-size="13" font-weight="bold" lengthAdjust="spacing" textLength="15.1709" x="637.8491" y="999.3936">alt</text><text fill="#000000" font-family="sans-serif" font-size="11" font-weight="bold" lengthAdjust="spacing" textLength="137.5806" x="698.02" y="998.3174">[paciente responde "sair"]</text><g class="message" data-participant-1="Paciente" data-participant-2="WA"><polygon fill="#181818" points="1095.6328,1021.6016,1085.6328,1025.6016,1095.6328,1029.6016,1091.6328,1025.6016" style="stroke:#181818;stroke-width:1;"/><line style="stroke:#181818;stroke-width:1;" x1="1089.6328" x2="1184.9727" y1="1025.6016" y2="1025.6016"/><text fill="#000000" font-family="sans-serif" font-size="13" lengthAdjust="spacing" textLength="36.1436" x="1101.6328" y="1020.7451">optout</text></g><g class="message" data-participant-1="WA" data-participant-2="W"><polygon fill="#181818" points="919.8667,1051.9531,909.8667,1055.9531,919.8667,1059.9531,915.8667,1055.9531" style="stroke:#181818;stroke-width:1;"/><line style="stroke:#181818;stroke-width:1;" x1="913.8667" x2="1083.6328" y1="1055.9531" y2="1055.9531"/><text fill="#000000" font-family="sans-serif" font-size="13" lengthAdjust="spacing" textLength="52.0381" x="925.8667" y="1051.0967">webhook</text></g><g class="message" data-participant-1="W" data-participant-2="DB"><polygon fill="#181818" points="674.4731,1082.3047,664.4731,1086.3047,674.4731,1090.3047,670.4731,1086.3047" style="stroke:#181818;stroke-width:1;"/><line style="stroke:#181818;stroke-width:1;" x1="668.4731" x2="907.8667" y1="1086.3047" y2="1086.3047"/><text fill="#000000" font-family="sans-serif" font-size="13" lengthAdjust="spacing" textLength="185.7261" x="680.4731" y="1081.4482">consentimento_eventos (optout)</text></g><g class="message" data-participant-1="W" data-participant-2="DB"><polygon fill="#181818" points="674.4731,1112.6563,664.4731,1116.6563,674.4731,1120.6563,670.4731,1116.6563" style="stroke:#181818;stroke-width:1;"/><line style="stroke:#181818;stroke-width:1;" x1="668.4731" x2="907.8667" y1="1116.6563" y2="1116.6563"/><text fill="#000000" font-family="sans-serif" font-size="13" lengthAdjust="spacing" textLength="118.0664" x="680.4731" y="1111.7998">alvo status = 'optout'</text></g><line style="stroke:#000000;stroke-width:1;stroke-dasharray:2,2;" x1="622.8491" x2="1226.2139" y1="1125.6563" y2="1125.6563"/><text fill="#000000" font-family="sans-serif" font-size="11" font-weight="bold" lengthAdjust="spacing" textLength="87.4253" x="627.8491" y="1137.0752">[paciente marca]</text><g class="message" data-participant-1="Paciente" data-participant-2="WA"><polygon fill="#181818" points="1095.6328,1158.8438,1085.6328,1162.8438,1095.6328,1166.8438,1091.6328,1162.8438" style="stroke:#181818;stroke-width:1;"/><line style="stroke:#181818;stroke-width:1;" x1="1089.6328" x2="1184.9727" y1="1162.8438" y2="1162.8438"/><text fill="#000000" font-family="sans-serif" font-size="13" lengthAdjust="spacing" textLength="77.3398" x="1101.6328" y="1157.9873">quer agendar</text></g><g class="message" data-participant-1="W" data-participant-2="DB"><polygon fill="#181818" points="674.4731,1189.1953,664.4731,1193.1953,674.4731,1197.1953,670.4731,1193.1953" style="stroke:#181818;stroke-width:1;"/><line style="stroke:#181818;stroke-width:1;" x1="668.4731" x2="907.8667" y1="1193.1953" y2="1193.1953"/><text fill="#000000" font-family="sans-serif" font-size="13" lengthAdjust="spacing" textLength="221.3936" x="680.4731" y="1188.3389">alvo status = 'reativado', reativado_em</text></g><path d="M752,1206.1953 L752,1232.1953 L1065,1232.1953 L1065,1216.1953 L1055,1206.1953 L752,1206.1953" fill="#FEFFDD" style="stroke:#181818;stroke-width:0.5;"/><path d="M1055,1206.1953 L1055,1216.1953 L1065,1216.1953 L1055,1206.1953" fill="#FEFFDD" style="stroke:#181818;stroke-width:0.5;"/><text fill="#000000" font-family="sans-serif" font-size="13" lengthAdjust="spacing" textLength="292.7031" x="758" y="1224.6904">segue o fluxo de 06-sequencia-agendamento-sofia</text><!--SRC=[VLNDYXD14BxFKnIv9C54z2Aok49a1G-AGP4SXzgPJhQrfwktkoUhDn_25n0Fek39Wx17vqry4gkw9yb4WgSirVNpVLzzDHjrD0fUg-ks-suhZMTGOUFGNY7K2hp2gBVOVUs-K55W5Sd3w9Mgb4iXe1OkoD88CC1BLpZqKLUQooECbgYjCkbfMTGOyHA3uZ25kF4gf8UB9ySrzg65tx_WXlmxvLF6wZXXjNYsoF553sU9bLOsgg9uwM3-69R05Bn6m0EJoLjaA5ZM6iCC78P0OLei9VtY2UVtD2kaSbSJO99YS0vhD45D2qkH1T6RgmYq5kG0xVKPM8Ac-_nUDmHlNYpsC_arrpl6M9dkXzKLtYsKhK4Q3T4sP2C2WUjkBuskQ03CzUG21DLmGoxN3GS8B48cLN3YVCSR-Psbfd2Q79ejCR4aG8cnHSFqxasBOkEfTO1f4g_zcb-kM-L1sQqcfdBerjsQA5mhie61P3IbsieFrwQ7o0Y4ludxz9p0qyX5QYE_0Wo0hybZYXsBB4-v0BY-KgA2yse6tJTmdbXTT8urcPCr7xXUyQAaG5jnfaZcrKQ7wEdVWOp6euYuraOcSnFPpN0jjGviFGJkqX0Jg_s7qwecaLZMb7KEOquSp-06oy12j452GJUjmPh6lOreo-BA48irGa0DJXc2rHN6i70E_dpy1A7x2OtYRH0hoPkjZaoJpNNm-03QtlOx0qVVSgqXSgc09oO794qrOvwmbcBWp0GUdVCQRgQiochVCpj76l9FHSrnXrtgQf6atMgnS-HT6RQic29bIzOYRw2tjPXVsO0RrHnD-u-uHc_LMB2TE4Svo5nGIbh9frTcd1F1tr_-z2obwfhnKSnVFS6OoRzwkdYUvFUALQbK2EXJFlLV9R3ouMluqj8NqjAMxcO3vSCUyXWUsfrpk3-38wMB_aXsLyupWoFBNKTi2JzAS_TQxVGTN938oL4EtgZBAw9tENfmmiaZdUGEqt-IHI8uM3OdZNTNjSVOeA_mDBBqoU1biZJ-_ytx1VD1p63_TvbSq6ysNOWm2shJoWsiJVkUHF5x3-Q1_rs9yt2UfoL-yq1hFRpblm00]--></g></svg>